M48
; DRILL file {KiCad (5.1.12-1-10_14)} date Saturday, November 13, 2021 at 06:07:45 PM
; FORMAT={-:-/ absolute / metric / decimal}
; #@! TF.CreationDate,2021-11-13T18:07:45-08:00
; #@! TF.GenerationSoftware,Kicad,Pcbnew,(5.1.12-1-10_14)
; #@! TF.FileFunction,NonPlated,1,2,NPTH
FMAT,2
METRIC
T1C1.700
T2C3.400
%
G90
G05
T1
X7.731Y-60.992
X8.917Y-44.034
X10.104Y-27.065
X18.704Y-61.76
X19.89Y-44.801
X21.077Y-27.833
X26.252Y-62.553
X28.618Y-45.718
X30.985Y-28.874
X37.145Y-64.084
X39.511Y-47.249
X41.711Y-81.893
X41.878Y-30.405
X44.077Y-65.058
X46.443Y-48.224
X48.808Y-31.389
X52.604Y-83.424
X54.97Y-66.589
X57.335Y-49.754
X59.535Y-84.398
X59.701Y-32.92
X61.901Y-67.563
X64.267Y-50.729
X66.633Y-33.894
X70.428Y-85.929
X72.794Y-69.094
X75.16Y-52.26
X77.36Y-86.903
X77.526Y-35.425
X79.726Y-70.068
X82.092Y-53.234
X84.458Y-36.399
X88.253Y-88.434
X90.619Y-71.599
X92.985Y-54.765
X95.351Y-37.93
X124.649Y-37.93
X127.015Y-54.765
X129.381Y-71.599
X131.747Y-88.434
X135.542Y-36.399
X137.908Y-53.234
X140.274Y-70.068
X142.474Y-35.425
X142.64Y-86.903
X144.84Y-52.26
X147.206Y-69.094
X149.572Y-85.929
X153.367Y-33.894
X155.733Y-50.729
X158.099Y-67.563
X160.299Y-32.92
X160.465Y-84.398
X162.665Y-49.754
X165.03Y-66.589
X167.396Y-83.424
X171.192Y-31.389
X173.557Y-48.224
X175.923Y-65.058
X178.123Y-30.415
X178.289Y-81.893
X180.489Y-47.249
X182.855Y-64.084
X189.016Y-28.884
X191.382Y-45.718
X193.748Y-62.553
X198.924Y-27.843
X200.11Y-44.801
X201.296Y-61.76
X209.897Y-27.075
X211.083Y-44.034
X212.269Y-60.992
T2
X13.218Y-61.376
X14.404Y-44.418
X15.59Y-27.449
X31.698Y-63.318
X34.064Y-46.484
X36.432Y-29.639
X47.157Y-82.658
X49.523Y-65.824
X51.889Y-48.989
X54.255Y-32.154
X64.982Y-85.163
X67.348Y-68.329
X69.714Y-51.494
X72.08Y-34.66
X82.807Y-87.668
X85.173Y-70.834
X87.539Y-53.999
X89.905Y-37.165
X130.095Y-37.165
X132.461Y-53.999
X134.827Y-70.834
X137.193Y-87.668
X147.92Y-34.66
X150.286Y-51.494
X152.652Y-68.329
X155.018Y-85.163
X165.745Y-32.154
X168.111Y-48.989
X170.477Y-65.824
X172.843Y-82.658
X183.57Y-29.649
X185.936Y-46.484
X188.302Y-63.318
X204.411Y-27.459
X205.596Y-44.418
X206.782Y-61.376
T0
M30
