G04 #@! TF.GenerationSoftware,KiCad,Pcbnew,(5.1.12-1-10_14)*
G04 #@! TF.CreationDate,2021-11-13T18:07:45-08:00*
G04 #@! TF.ProjectId,chocV,63686f63-562e-46b6-9963-61645f706362,rev?*
G04 #@! TF.SameCoordinates,Original*
G04 #@! TF.FileFunction,Soldermask,Top*
G04 #@! TF.FilePolarity,Negative*
%FSLAX46Y46*%
G04 Gerber Fmt 4.6, Leading zero omitted, Abs format (unit mm)*
G04 Created by KiCad (PCBNEW (5.1.12-1-10_14)) date 2021-11-13 18:07:45*
%MOMM*%
%LPD*%
G01*
G04 APERTURE LIST*
%ADD10C,1.700000*%
%ADD11C,2.000000*%
%ADD12C,3.400000*%
%ADD13C,1.800000*%
%ADD14C,0.700000*%
%ADD15C,4.400000*%
G04 APERTURE END LIST*
D10*
X142639686Y-86902940D03*
X131746738Y-88433844D03*
D11*
X136372091Y-81825810D03*
X141615695Y-83209508D03*
D12*
X137193212Y-87668392D03*
D10*
X178289337Y-81892709D03*
X167396389Y-83423613D03*
D11*
X172021742Y-76815579D03*
X177265346Y-78199277D03*
D12*
X172842863Y-82658161D03*
D10*
X160464511Y-84397824D03*
X149571563Y-85928728D03*
D11*
X154196916Y-79320694D03*
X159440520Y-80704392D03*
D12*
X155018037Y-85163276D03*
D10*
X140273743Y-70068383D03*
X129380795Y-71599287D03*
D11*
X134006148Y-64991253D03*
X139249752Y-66374951D03*
D12*
X134827269Y-70833835D03*
D10*
X175923394Y-65058151D03*
X165030446Y-66589055D03*
D11*
X169655799Y-59981021D03*
X174899403Y-61364719D03*
D12*
X170476920Y-65823603D03*
D13*
X117620000Y-51030000D03*
X117620000Y-53570000D03*
X117620000Y-56110000D03*
X117620000Y-58650000D03*
X117620000Y-61190000D03*
X117620000Y-63730000D03*
X117620000Y-66270000D03*
X117620000Y-68810000D03*
X117620000Y-71350000D03*
X117620000Y-73890000D03*
X117620000Y-76430000D03*
X102380000Y-78970000D03*
X102380000Y-76430000D03*
X102380000Y-73890000D03*
X102380000Y-71350000D03*
X102380000Y-68810000D03*
X102380000Y-66270000D03*
X102380000Y-63730000D03*
X102380000Y-61190000D03*
X102380000Y-58650000D03*
X102380000Y-56110000D03*
X102380000Y-53570000D03*
X117620000Y-78970000D03*
X102380000Y-51030000D03*
X106750000Y-90250000D03*
X106750000Y-85750000D03*
X113250000Y-90250000D03*
X113250000Y-85750000D03*
D10*
X88253262Y-88433844D03*
X77360314Y-86902940D03*
D11*
X83627909Y-81825810D03*
X88286986Y-84601239D03*
D12*
X82806788Y-87668392D03*
D10*
X70428437Y-85928728D03*
X59535489Y-84397824D03*
D11*
X65803084Y-79320694D03*
X70462161Y-82096123D03*
D12*
X64981963Y-85163276D03*
D10*
X52603611Y-83423613D03*
X41710663Y-81892709D03*
D11*
X47978258Y-76815579D03*
X52637335Y-79591008D03*
D12*
X47157137Y-82658161D03*
D10*
X212268877Y-60992445D03*
X201295673Y-61759767D03*
D11*
X206370712Y-55490478D03*
X211505021Y-57236580D03*
D12*
X206782275Y-61376106D03*
D10*
X193748219Y-62553036D03*
X182855271Y-64083940D03*
D11*
X187480624Y-57475906D03*
X192724228Y-58859604D03*
D12*
X188301745Y-63318488D03*
D10*
X158098569Y-67563267D03*
X147205621Y-69094171D03*
D11*
X151830974Y-62486137D03*
X157074578Y-63869835D03*
D12*
X152652095Y-68328719D03*
D10*
X90619205Y-71599287D03*
X79726257Y-70068383D03*
D11*
X85993852Y-64991253D03*
X90652929Y-67766682D03*
D12*
X85172731Y-70833835D03*
D10*
X72794379Y-69094171D03*
X61901431Y-67563267D03*
D11*
X68169026Y-62486137D03*
X72828103Y-65261566D03*
D12*
X67347905Y-68328719D03*
D10*
X54969554Y-66589055D03*
X44076606Y-65058151D03*
D11*
X50344201Y-59981021D03*
X55003278Y-62756450D03*
D12*
X49523080Y-65823603D03*
D10*
X37144729Y-64083940D03*
X26251781Y-62553036D03*
D11*
X32519376Y-57475906D03*
X37178453Y-60251335D03*
D12*
X31698255Y-63318488D03*
D10*
X18704327Y-61759767D03*
X7731123Y-60992445D03*
D11*
X13629288Y-55490478D03*
X18470620Y-57934145D03*
D12*
X13217725Y-61376106D03*
D10*
X211083018Y-44033856D03*
X200109814Y-44801178D03*
D11*
X205184853Y-38531889D03*
X210319162Y-40277991D03*
D12*
X205596416Y-44417517D03*
D10*
X191382276Y-45718478D03*
X180489328Y-47249382D03*
D11*
X185114681Y-40641348D03*
X190358285Y-42025046D03*
D12*
X185935802Y-46483930D03*
D10*
X173557451Y-48223594D03*
X162664503Y-49754498D03*
D11*
X167289856Y-43146464D03*
X172533460Y-44530162D03*
D12*
X168110977Y-48989046D03*
D10*
X155732626Y-50728710D03*
X144839678Y-52259614D03*
D11*
X149465031Y-45651580D03*
X154708635Y-47035278D03*
D12*
X150286152Y-51494162D03*
D10*
X137907801Y-53233826D03*
X127014853Y-54764730D03*
D11*
X131640206Y-48156696D03*
X136883810Y-49540394D03*
D12*
X132461327Y-53999278D03*
D10*
X92985147Y-54764730D03*
X82092199Y-53233826D03*
D11*
X88359794Y-48156696D03*
X93018871Y-50932125D03*
D12*
X87538673Y-53999278D03*
D10*
X75160322Y-52259614D03*
X64267374Y-50728710D03*
D11*
X70534969Y-45651580D03*
X75194046Y-48427009D03*
D12*
X69713848Y-51494162D03*
D10*
X57335497Y-49754498D03*
X46442549Y-48223594D03*
D11*
X52710144Y-43146464D03*
X57369221Y-45921893D03*
D12*
X51889023Y-48989046D03*
D10*
X39510672Y-47249382D03*
X28617724Y-45718478D03*
D11*
X34885319Y-40641348D03*
X39544396Y-43416777D03*
D12*
X34064198Y-46483930D03*
D10*
X19890186Y-44801178D03*
X8916982Y-44033856D03*
D11*
X14815147Y-38531889D03*
X19656479Y-40975556D03*
D12*
X14403584Y-44417517D03*
D10*
X209897158Y-27075267D03*
X198923954Y-27842589D03*
D11*
X203998993Y-21573300D03*
X209133302Y-23319402D03*
D12*
X204410556Y-27458928D03*
D10*
X189016334Y-28883921D03*
X178123386Y-30414825D03*
D11*
X182748739Y-23806791D03*
X187992343Y-25190489D03*
D12*
X183569860Y-29649373D03*
D10*
X171191508Y-31389037D03*
X160298560Y-32919941D03*
D11*
X164923913Y-26311907D03*
X170167517Y-27695605D03*
D12*
X165745034Y-32154489D03*
D10*
X153366683Y-33894153D03*
X142473735Y-35425057D03*
D11*
X147099088Y-28817023D03*
X152342692Y-30200721D03*
D12*
X147920209Y-34659605D03*
D10*
X135541858Y-36399269D03*
X124648910Y-37930173D03*
D11*
X129274263Y-31322139D03*
X134517867Y-32705837D03*
D12*
X130095384Y-37164721D03*
D10*
X95351090Y-37930173D03*
X84458142Y-36399269D03*
D11*
X90725737Y-31322139D03*
X95384814Y-34097568D03*
D12*
X89904616Y-37164721D03*
D10*
X77526265Y-35425057D03*
X66633317Y-33894153D03*
D11*
X72900912Y-28817023D03*
X77559989Y-31592452D03*
D12*
X72079791Y-34659605D03*
D10*
X59701440Y-32919941D03*
X48808492Y-31389037D03*
D11*
X55076087Y-26311907D03*
X59735164Y-29087336D03*
D12*
X54254966Y-32154489D03*
D10*
X41878006Y-30404923D03*
X30985058Y-28874019D03*
D11*
X37252653Y-23796889D03*
X41911730Y-26572318D03*
D12*
X36431532Y-29639471D03*
D10*
X21076744Y-27832613D03*
X10103540Y-27065291D03*
D11*
X16001705Y-21563324D03*
X20843037Y-24006991D03*
D12*
X15590142Y-27448952D03*
D14*
X45477330Y-38326215D03*
X44389218Y-37685268D03*
X43166587Y-38001462D03*
X42525640Y-39089574D03*
X42841834Y-40312205D03*
X43929946Y-40953152D03*
X45152577Y-40636958D03*
X45793524Y-39548846D03*
D15*
X44159582Y-39319210D03*
D14*
X176833413Y-38001462D03*
X175610782Y-37685268D03*
X174522670Y-38326215D03*
X174206476Y-39548846D03*
X174847423Y-40636958D03*
X176070054Y-40953152D03*
X177158166Y-40312205D03*
X177474360Y-39089574D03*
D15*
X175840418Y-39319210D03*
D14*
X125166726Y-91833274D03*
X124000000Y-91350000D03*
X122833274Y-91833274D03*
X122350000Y-93000000D03*
X122833274Y-94166726D03*
X124000000Y-94650000D03*
X125166726Y-94166726D03*
X125650000Y-93000000D03*
D15*
X124000000Y-93000000D03*
D14*
X163740474Y-74175692D03*
X162517843Y-73859498D03*
X161429731Y-74500445D03*
X161113537Y-75723076D03*
X161754484Y-76811188D03*
X162977115Y-77127382D03*
X164065227Y-76486435D03*
X164381421Y-75263804D03*
D15*
X162747479Y-75493440D03*
D14*
X98166726Y-72933274D03*
X97000000Y-72450000D03*
X95833274Y-72933274D03*
X95350000Y-74100000D03*
X95833274Y-75266726D03*
X97000000Y-75750000D03*
X98166726Y-75266726D03*
X98650000Y-74100000D03*
D15*
X97000000Y-74100000D03*
D14*
X58570269Y-74500445D03*
X57482157Y-73859498D03*
X56259526Y-74175692D03*
X55618579Y-75263804D03*
X55934773Y-76486435D03*
X57022885Y-77127382D03*
X58245516Y-76811188D03*
X58886463Y-75723076D03*
D15*
X57252521Y-75493440D03*
D14*
X124166726Y-72833274D03*
X123000000Y-72350000D03*
X121833274Y-72833274D03*
X121350000Y-74000000D03*
X121833274Y-75166726D03*
X123000000Y-75650000D03*
X124166726Y-75166726D03*
X124650000Y-74000000D03*
D15*
X123000000Y-74000000D03*
D14*
X97166726Y-91833274D03*
X96000000Y-91350000D03*
X94833274Y-91833274D03*
X94350000Y-93000000D03*
X94833274Y-94166726D03*
X96000000Y-94650000D03*
X97166726Y-94166726D03*
X97650000Y-93000000D03*
D15*
X96000000Y-93000000D03*
M02*
