M48
; DRILL file {KiCad (5.1.12-1-10_14)} date Saturday, November 13, 2021 at 06:07:45 PM
; FORMAT={-:-/ absolute / metric / decimal}
; #@! TF.CreationDate,2021-11-13T18:07:45-08:00
; #@! TF.GenerationSoftware,Kicad,Pcbnew,(5.1.12-1-10_14)
; #@! TF.FileFunction,Plated,1,2,PTH
FMAT,2
METRIC
T1C0.400
T2C1.000
T3C1.200
T4C2.200
%
G90
G05
T1
X42.526Y-39.09
X42.842Y-40.312
X43.167Y-38.001
X43.93Y-40.953
X44.389Y-37.685
X45.153Y-40.637
X45.477Y-38.326
X45.794Y-39.549
X55.619Y-75.264
X55.935Y-76.486
X56.26Y-74.176
X57.023Y-77.127
X57.482Y-73.859
X58.246Y-76.811
X58.57Y-74.5
X58.886Y-75.723
X94.35Y-93.0
X94.833Y-91.833
X94.833Y-94.167
X95.35Y-74.1
X95.833Y-72.933
X95.833Y-75.267
X96.0Y-91.35
X96.0Y-94.65
X97.0Y-72.45
X97.0Y-75.75
X97.167Y-91.833
X97.167Y-94.167
X97.65Y-93.0
X98.167Y-72.933
X98.167Y-75.267
X98.65Y-74.1
X121.35Y-74.0
X121.833Y-72.833
X121.833Y-75.167
X122.35Y-93.0
X122.833Y-91.833
X122.833Y-94.167
X123.0Y-72.35
X123.0Y-75.65
X124.0Y-91.35
X124.0Y-94.65
X124.167Y-72.833
X124.167Y-75.167
X124.65Y-74.0
X125.167Y-91.833
X125.167Y-94.167
X125.65Y-93.0
X161.114Y-75.723
X161.43Y-74.5
X161.754Y-76.811
X162.518Y-73.859
X162.977Y-77.127
X163.74Y-74.176
X164.065Y-76.486
X164.381Y-75.264
X174.206Y-39.549
X174.523Y-38.326
X174.847Y-40.637
X175.611Y-37.685
X176.07Y-40.953
X176.833Y-38.001
X177.158Y-40.312
X177.474Y-39.09
T2
X102.38Y-51.03
X102.38Y-53.57
X102.38Y-56.11
X102.38Y-58.65
X102.38Y-61.19
X102.38Y-63.73
X102.38Y-66.27
X102.38Y-68.81
X102.38Y-71.35
X102.38Y-73.89
X102.38Y-76.43
X102.38Y-78.97
X106.75Y-85.75
X106.75Y-90.25
X113.25Y-85.75
X113.25Y-90.25
X117.62Y-51.03
X117.62Y-53.57
X117.62Y-56.11
X117.62Y-58.65
X117.62Y-61.19
X117.62Y-63.73
X117.62Y-66.27
X117.62Y-68.81
X117.62Y-71.35
X117.62Y-73.89
X117.62Y-76.43
X117.62Y-78.97
T3
X13.629Y-55.49
X14.815Y-38.532
X16.002Y-21.563
X18.471Y-57.934
X19.656Y-40.976
X20.843Y-24.007
X32.519Y-57.476
X34.885Y-40.641
X37.178Y-60.251
X37.253Y-23.797
X39.544Y-43.417
X41.912Y-26.572
X47.978Y-76.816
X50.344Y-59.981
X52.637Y-79.591
X52.71Y-43.146
X55.003Y-62.756
X55.076Y-26.312
X57.369Y-45.922
X59.735Y-29.087
X65.803Y-79.321
X68.169Y-62.486
X70.462Y-82.096
X70.535Y-45.652
X72.828Y-65.262
X72.901Y-28.817
X75.194Y-48.427
X77.56Y-31.592
X83.628Y-81.826
X85.994Y-64.991
X88.287Y-84.601
X88.36Y-48.157
X90.653Y-67.767
X90.726Y-31.322
X93.019Y-50.932
X95.385Y-34.098
X129.274Y-31.322
X131.64Y-48.157
X134.006Y-64.991
X134.518Y-32.706
X136.372Y-81.826
X136.884Y-49.54
X139.25Y-66.375
X141.616Y-83.21
X147.099Y-28.817
X149.465Y-45.652
X151.831Y-62.486
X152.343Y-30.201
X154.197Y-79.321
X154.709Y-47.035
X157.075Y-63.87
X159.441Y-80.704
X164.924Y-26.312
X167.29Y-43.146
X169.656Y-59.981
X170.168Y-27.696
X172.022Y-76.816
X172.533Y-44.53
X174.899Y-61.365
X177.265Y-78.199
X182.749Y-23.807
X185.115Y-40.641
X187.481Y-57.476
X187.992Y-25.19
X190.358Y-42.025
X192.724Y-58.86
X203.999Y-21.573
X205.185Y-38.532
X206.371Y-55.49
X209.133Y-23.319
X210.319Y-40.278
X211.505Y-57.237
T4
X44.16Y-39.319
X57.253Y-75.493
X96.0Y-93.0
X97.0Y-74.1
X123.0Y-74.0
X124.0Y-93.0
X162.747Y-75.493
X175.84Y-39.319
T0
M30
