G04 #@! TF.GenerationSoftware,KiCad,Pcbnew,(5.1.12-1-10_14)*
G04 #@! TF.CreationDate,2021-11-13T18:07:45-08:00*
G04 #@! TF.ProjectId,chocV,63686f63-562e-46b6-9963-61645f706362,rev?*
G04 #@! TF.SameCoordinates,Original*
G04 #@! TF.FileFunction,Profile,NP*
%FSLAX46Y46*%
G04 Gerber Fmt 4.6, Leading zero omitted, Abs format (unit mm)*
G04 Created by KiCad (PCBNEW (5.1.12-1-10_14)) date 2021-11-13 18:07:45*
%MOMM*%
%LPD*%
G01*
G04 APERTURE LIST*
G04 #@! TA.AperFunction,Profile*
%ADD10C,0.050000*%
G04 #@! TD*
G04 APERTURE END LIST*
D10*
X121744924Y-29800000D02*
X191300000Y-20000000D01*
X115500000Y-47270226D02*
X119600055Y-31589546D01*
X106500000Y-49000000D02*
X113518340Y-49000000D01*
X100444869Y-31589546D02*
X104518340Y-47270226D01*
X28700000Y-20000000D02*
X98300000Y-29800000D01*
X211100000Y-18400000D02*
X194800000Y-19600000D01*
X216300000Y-67500000D02*
X212963103Y-19927379D01*
X198400000Y-70500000D02*
X214500000Y-69300000D01*
X180859715Y-75185071D02*
X182700000Y-88100000D01*
X198400000Y-70500000D02*
X182800000Y-72700000D01*
X133799999Y-96800000D02*
X181043858Y-90070219D01*
X113999999Y-95000001D02*
X125799999Y-96800000D01*
X94399999Y-96800000D02*
X105999999Y-95000001D01*
X39000000Y-90100000D02*
X86399999Y-96800000D01*
X39140285Y-75185071D02*
X37343858Y-88129781D01*
X21600000Y-70500000D02*
X37200000Y-72700000D01*
X21600000Y-70500000D02*
X5600000Y-69300000D01*
X7100000Y-20027379D02*
X3800000Y-67500000D01*
X25100000Y-19600000D02*
X8963103Y-18500000D01*
X125799999Y-96800000D02*
G75*
G03*
X133799999Y-96800000I4000001J24999999D01*
G01*
X86399999Y-96800000D02*
G75*
G03*
X94399999Y-96800000I4000001J24999999D01*
G01*
X105999999Y-95000001D02*
G75*
G02*
X113999999Y-95000001I4000001J-24999999D01*
G01*
X181043858Y-90070219D02*
G75*
G03*
X182700000Y-88100000I-343858J1970219D01*
G01*
X39000000Y-90100000D02*
G75*
G02*
X37343858Y-88129781I343858J1970219D01*
G01*
X39140285Y-75185071D02*
G75*
G03*
X37200000Y-72700000I-1940285J485071D01*
G01*
X180859715Y-75185071D02*
G75*
G02*
X182800000Y-72700000I1940285J485071D01*
G01*
X214500000Y-69300000D02*
G75*
G03*
X216300000Y-67500000I0J1800000D01*
G01*
X5600000Y-69300000D02*
G75*
G02*
X3800000Y-67500000I0J1800000D01*
G01*
X212963103Y-19927379D02*
G75*
G03*
X211100000Y-18400000I-1863103J-372621D01*
G01*
X7100000Y-20027379D02*
G75*
G02*
X8963103Y-18500000I1863103J-372621D01*
G01*
X104518340Y-47270226D02*
G75*
G03*
X106500000Y-49000000I1981660J270226D01*
G01*
X115500000Y-47270226D02*
G75*
G02*
X113518340Y-49000000I-1981660J270226D01*
G01*
X100444869Y-31589546D02*
G75*
G03*
X98300000Y-29800000I-2244868J-510453D01*
G01*
X119600055Y-31589546D02*
G75*
G02*
X121744924Y-29800000I2244868J-510453D01*
G01*
X28700000Y-20000000D02*
X25100000Y-19600000D01*
X191300000Y-20000000D02*
X194800000Y-19600000D01*
M02*
